<svg xmlns="http://www.w3.org/2000/svg" width="128" height="128" viewBox="0 0 33.867 33.867" id="tiktok"><path style="line-height:normal;font-variant-ligatures:normal;font-variant-position:normal;font-variant-caps:normal;font-variant-numeric:normal;font-variant-alternates:normal;font-variant-east-asian:normal;font-feature-settings:normal;font-variation-settings:normal;text-indent:0;text-align:start;text-decoration-line:none;text-decoration-style:solid;text-decoration-color:#000;text-transform:none;text-orientation:mixed;white-space:normal;shape-padding:0;shape-margin:0;inline-size:0;isolation:auto;mix-blend-mode:normal;solid-color:#000;solid-opacity:1" d="m22.913 1.057-5.29.001v21.836a4.614 4.614 0 0 1-2.859 4.276 4.611 4.611 0 0 1-5.043-1.003 4.615 4.615 0 0 1-1.004-5.046 4.612 4.612 0 0 1 4.276-2.856h1.711v-5.29h-1.71A9.934 9.934 0 0 0 3.83 19.1a9.934 9.934 0 0 0 2.15 10.81 9.935 9.935 0 0 0 10.81 2.149 9.934 9.934 0 0 0 6.123-9.164V10.786c1.44.858 3.14 1.488 5.233 1.488h2.644V6.983h-2.644c-2.975 0-3.781-1.21-4.487-2.745-.706-1.534-.746-3.181-.746-3.181Z" color="#000" font-family="sans-serif" font-weight="400" overflow="visible" paint-order="fill markers stroke"></path></svg>